<svg width="21" height="21" viewBox="0 0 21 21" fill="none" xmlns="http://www.w3.org/2000/svg">
<path d="M10.6178 7.96151C9.8198 7.96151 9.05449 8.27851 8.49023 8.84277C7.92597 9.40703 7.60897 10.1723 7.60897 10.9703C7.60897 11.7683 7.92597 12.5336 8.49023 13.0979C9.05449 13.6622 9.8198 13.9792 10.6178 13.9792C11.4158 13.9792 12.1811 13.6622 12.7454 13.0979C13.3096 12.5336 13.6266 11.7683 13.6266 10.9703C13.6266 10.1723 13.3096 9.40703 12.7454 8.84277C12.1811 8.27851 11.4158 7.96151 10.6178 7.96151ZM10.6178 5.95562C11.9478 5.95562 13.2233 6.48396 14.1637 7.4244C15.1042 8.36484 15.6325 9.64035 15.6325 10.9703C15.6325 12.3003 15.1042 13.5758 14.1637 14.5163C13.2233 15.4567 11.9478 15.985 10.6178 15.985C9.28781 15.985 8.0123 15.4567 7.07186 14.5163C6.13142 13.5758 5.60309 12.3003 5.60309 10.9703C5.60309 9.64035 6.13142 8.36484 7.07186 7.4244C8.0123 6.48396 9.28781 5.95562 10.6178 5.95562ZM17.1369 5.70489C17.1369 6.03738 17.0048 6.35626 16.7697 6.59137C16.5346 6.82648 16.2157 6.95857 15.8832 6.95857C15.5507 6.95857 15.2319 6.82648 14.9967 6.59137C14.7616 6.35626 14.6296 6.03738 14.6296 5.70489C14.6296 5.37239 14.7616 5.05352 14.9967 4.81841C15.2319 4.5833 15.5507 4.45121 15.8832 4.45121C16.2157 4.45121 16.5346 4.5833 16.7697 4.81841C17.0048 5.05352 17.1369 5.37239 17.1369 5.70489ZM10.6178 2.9468C8.13651 2.9468 7.73133 2.95382 6.57694 3.00497C5.79064 3.04208 5.26309 3.14739 4.77365 3.33795C4.36407 3.48833 3.99378 3.72936 3.69048 4.04302C3.37656 4.3463 3.1352 4.71657 2.98441 5.12619C2.79385 5.61763 2.68854 6.14418 2.65243 6.92948C2.60028 8.03673 2.59426 8.42386 2.59426 10.9703C2.59426 13.4516 2.60128 13.8568 2.65243 15.0112C2.68954 15.7965 2.79485 16.325 2.98441 16.8135C3.15491 17.2497 3.35549 17.5637 3.68847 17.8966C4.02646 18.2336 4.34038 18.4352 4.77165 18.6017C5.2671 18.7933 5.79465 18.8996 6.57694 18.9357C7.68419 18.9878 8.07132 18.9939 10.6178 18.9939C13.0991 18.9939 13.5043 18.9868 14.6586 18.9357C15.4429 18.8986 15.9715 18.7933 16.4609 18.6037C16.8699 18.4526 17.24 18.212 17.5441 17.8997C17.8821 17.5617 18.0837 17.2477 18.2502 16.8165C18.4407 16.322 18.547 15.7935 18.5832 15.0112C18.6353 13.9039 18.6413 13.5168 18.6413 10.9703C18.6413 8.48905 18.6343 8.08387 18.5832 6.92948C18.546 6.14518 18.4407 5.61563 18.2502 5.12619C18.099 4.71699 17.8581 4.34687 17.5451 4.04302C17.242 3.72894 16.8716 3.48755 16.4619 3.33694C15.9705 3.14639 15.4429 3.04108 14.6586 3.00497C13.5514 2.95282 13.1643 2.9468 10.6178 2.9468ZM10.6178 0.940918C13.3428 0.940918 13.6828 0.950947 14.7519 1.00109C15.82 1.05124 16.5472 1.21873 17.1871 1.46746C17.849 1.72221 18.4066 2.06722 18.9643 2.62385C19.4743 3.12522 19.8689 3.73169 20.1207 4.40107C20.3684 5.03994 20.5369 5.76807 20.587 6.83621C20.6342 7.90534 20.6472 8.24534 20.6472 10.9703C20.6472 13.6953 20.6372 14.0353 20.587 15.1045C20.5369 16.1726 20.3684 16.8997 20.1207 17.5396C19.8696 18.2093 19.4749 18.816 18.9643 19.3168C18.4628 19.8266 17.8563 20.2212 17.1871 20.4732C16.5482 20.7209 15.82 20.8894 14.7519 20.9396C13.6828 20.9867 13.3428 20.9997 10.6178 20.9997C7.8928 20.9997 7.5528 20.9897 6.48367 20.9396C5.41553 20.8894 4.6884 20.7209 4.04853 20.4732C3.37889 20.2219 2.77231 19.8272 2.27131 19.3168C1.76122 18.8155 1.36659 18.209 1.11492 17.5396C0.866194 16.9007 0.698702 16.1726 0.648555 15.1045C0.601417 14.0353 0.588379 13.6953 0.588379 10.9703C0.588379 8.24534 0.598408 7.90534 0.648555 6.83621C0.698702 5.76707 0.866194 5.04094 1.11492 4.40107C1.3659 3.73128 1.76062 3.12464 2.27131 2.62385C2.77245 2.11359 3.37899 1.71893 4.04853 1.46746C4.6884 1.21873 5.41453 1.05124 6.48367 1.00109C7.5528 0.953956 7.8928 0.940918 10.6178 0.940918Z" fill="white"/>
</svg>
