<svg width="19" height="20" viewBox="0 0 19 20" fill="none" xmlns="http://www.w3.org/2000/svg">
<path d="M3.93803 2.95488C3.93777 3.48875 3.73007 4.00065 3.36062 4.37797C2.99118 4.75528 2.49025 4.96711 1.96803 4.96684C1.44581 4.96657 0.945092 4.75424 0.576015 4.37654C0.206938 3.99885 -0.000260861 3.48674 2.46483e-07 2.95287C0.000261354 2.419 0.207961 1.9071 0.577407 1.52979C0.946854 1.15247 1.44778 0.940651 1.97 0.940918C2.49221 0.941185 2.99294 1.15352 3.36201 1.53121C3.73109 1.9089 3.93829 2.42101 3.93803 2.95488ZM3.9971 6.45744H0.0590706V19.0586H3.9971V6.45744ZM10.2192 6.45744H6.30085V19.0586H10.1798V12.446C10.1798 8.76228 14.8759 8.42007 14.8759 12.446V19.0586H18.7647V11.0772C18.7647 4.8672 11.8141 5.09869 10.1798 8.14832L10.2192 6.45744Z" fill="white"/>
</svg>
