<svg width="625" height="355" viewBox="0 0 625 355" fill="none" xmlns="http://www.w3.org/2000/svg">
<g clip-path="url(#clip0_1310_1905)">
<path d="M552.921 2.18018H77.2118C68.684 2.18018 61.7725 9.00547 61.7725 17.4177V335.903H63.9814V15.2376C63.9814 14.5674 64.0353 13.9049 64.1353 13.2578C64.1661 13.0421 64.2046 12.8264 64.2508 12.6184C64.2969 12.4104 64.3431 12.1947 64.397 11.9867C64.4509 11.7787 64.5124 11.5707 64.574 11.3704C65.1205 9.63716 66.0287 8.05794 67.1985 6.71753C67.3371 6.55576 67.4756 6.40939 67.6219 6.25532C67.6911 6.17829 67.7681 6.10896 67.8451 6.03192C68.5147 5.36942 69.2612 4.77625 70.0617 4.26782C70.331 4.09835 70.6004 3.93657 70.8852 3.79021C71.1623 3.63614 71.447 3.49747 71.7395 3.36651C71.9319 3.28178 72.132 3.19704 72.3322 3.12C73.8253 2.54224 75.4647 2.21869 77.1656 2.21869H552.875C555.146 2.21869 557.293 2.78875 559.163 3.79021C559.44 3.94428 559.717 4.09835 559.987 4.26782C560.341 4.49122 560.687 4.73774 561.018 4.99195C561.188 5.12291 561.349 5.25387 561.503 5.39253C561.742 5.60053 561.973 5.80852 562.196 6.03192C562.273 6.10896 562.342 6.17829 562.419 6.25532C562.565 6.40939 562.711 6.55576 562.842 6.71753C564.851 9.00547 566.067 11.9867 566.067 15.2376V335.903H568.299V16.4625C567.799 8.49704 561.095 2.18018 552.898 2.18018H552.921Z" fill="url(#paint0_linear_1310_1905)"/>
<path d="M61.7417 15.2375C61.7417 6.82529 68.6532 0 77.181 0H552.891C561.418 0 568.322 6.82529 568.322 15.2375V16.4547C567.822 8.48925 561.118 2.17238 552.921 2.17238H77.2118C68.684 2.17238 61.7725 8.99768 61.7725 17.4099L61.7417 15.2298V15.2375Z" fill="url(#paint1_linear_1310_1905)"/>
<path d="M566.09 326.99H63.9814V335.911H566.09V326.99Z" fill="black"/>
<path d="M566.09 15.3068V326.982H63.9814V15.3068C63.9814 8.08089 69.9001 2.20312 77.1811 2.20312H552.891C560.172 2.20312 566.09 8.08089 566.09 15.3068Z" fill="black"/>
<path d="M568.322 335.903V336.72H566.09H63.9814H61.7725V335.903H568.322Z" fill="black"/>
<path d="M312.504 337.19H0V346.657H312.504V337.19Z" fill="url(#paint2_linear_1310_1905)"/>
<path d="M625 336.72H0V337.19H625V336.72Z" fill="url(#paint3_linear_1310_1905)"/>
<path d="M625.008 337.19H312.504V346.657H625.008V337.19Z" fill="url(#paint4_linear_1310_1905)"/>
<path d="M312.504 337.19H0V346.095H312.504V337.19Z" fill="url(#paint5_linear_1310_1905)"/>
<path d="M625.008 337.19H312.504V346.095H625.008V337.19Z" fill="url(#paint6_linear_1310_1905)"/>
<path d="M356.982 336.72C356.982 338.723 356.174 340.533 354.858 341.843C353.55 343.152 351.741 343.969 349.74 343.969H275.26C271.266 343.969 268.025 340.718 268.025 336.72H356.982Z" fill="url(#paint7_linear_1310_1905)"/>
<path d="M356.982 336.72C356.982 338.723 356.174 340.533 354.858 341.843C353.55 343.152 351.741 343.969 349.74 343.969H275.26C271.266 343.969 268.025 340.718 268.025 336.72H267.671V337.259C267.671 341.257 270.919 344.5 274.914 344.5H350.086C354.088 344.5 357.329 341.257 357.329 337.259V336.72H356.982Z" fill="url(#paint8_linear_1310_1905)"/>
<path d="M0 346.657C21.9737 352.188 44.8633 355 67.8761 355H557.116C580.137 355 603.019 352.188 624.992 346.657H0Z" fill="url(#paint9_linear_1310_1905)"/>
<path d="M555.7 21.1924H74.3721V319.279H555.7V21.1924Z" fill="#6F6F6F"/>
</g>
<defs>
<linearGradient id="paint0_linear_1310_1905" x1="315.051" y1="335.903" x2="315.051" y2="2.18018" gradientUnits="userSpaceOnUse">
<stop stop-color="#9A9A9A"/>
<stop offset="0.09" stop-color="#A1A1A1"/>
<stop offset="0.24" stop-color="#B7B7B7"/>
<stop offset="0.42" stop-color="#DADADA"/>
<stop offset="0.45" stop-color="#E2E2E2"/>
<stop offset="1" stop-color="#C5C5C5"/>
</linearGradient>
<linearGradient id="paint1_linear_1310_1905" x1="315.036" y1="17.4176" x2="315.036" y2="0" gradientUnits="userSpaceOnUse">
<stop stop-color="#404040"/>
<stop offset="0.28" stop-color="#424242"/>
<stop offset="0.45" stop-color="#4A4A4A"/>
<stop offset="0.59" stop-color="#595959"/>
<stop offset="0.71" stop-color="#6D6D6D"/>
<stop offset="0.82" stop-color="#878787"/>
<stop offset="0.92" stop-color="#A7A7A7"/>
<stop offset="1" stop-color="#C5C5C5"/>
</linearGradient>
<linearGradient id="paint2_linear_1310_1905" x1="0" y1="341.927" x2="312.504" y2="341.927" gradientUnits="userSpaceOnUse">
<stop stop-color="#929292"/>
<stop offset="0.01" stop-color="#C1C1C1"/>
<stop offset="0.03" stop-color="#B1B1B1"/>
<stop offset="0.05" stop-color="#9C9C9C"/>
<stop offset="0.07" stop-color="#A3A3A3"/>
<stop offset="0.09" stop-color="#AFAFAF"/>
<stop offset="1" stop-color="#CFCFCF"/>
</linearGradient>
<linearGradient id="paint3_linear_1310_1905" x1="0" y1="336.959" x2="625" y2="336.959" gradientUnits="userSpaceOnUse">
<stop stop-color="#F8F8F8"/>
<stop offset="0.06" stop-color="#D0D0D0"/>
<stop offset="0.5" stop-color="#F8F8F8"/>
<stop offset="0.87" stop-color="#D0D0D0"/>
<stop offset="0.88" stop-color="#D3D3D3"/>
<stop offset="0.95" stop-color="#E8E8E8"/>
<stop offset="1" stop-color="#F1F1F1"/>
</linearGradient>
<linearGradient id="paint4_linear_1310_1905" x1="312.504" y1="341.927" x2="625" y2="341.927" gradientUnits="userSpaceOnUse">
<stop stop-color="#CFCFCF"/>
<stop offset="0.91" stop-color="#AFAFAF"/>
<stop offset="0.93" stop-color="#A3A3A3"/>
<stop offset="0.95" stop-color="#9C9C9C"/>
<stop offset="0.97" stop-color="#B1B1B1"/>
<stop offset="0.99" stop-color="#C1C1C1"/>
<stop offset="1" stop-color="#929292"/>
</linearGradient>
<linearGradient id="paint5_linear_1310_1905" x1="0" y1="341.65" x2="312.504" y2="341.65" gradientUnits="userSpaceOnUse">
<stop stop-color="#666666"/>
<stop offset="0.01" stop-color="#D5D5D5"/>
<stop offset="0.02" stop-color="#BDBDBD"/>
<stop offset="0.04" stop-color="#858585"/>
<stop offset="0.05" stop-color="#707070"/>
<stop offset="0.06" stop-color="#787878"/>
<stop offset="0.07" stop-color="#8D8D8D"/>
<stop offset="0.09" stop-color="#BCBCBC"/>
<stop offset="1" stop-color="#F1F1F1"/>
</linearGradient>
<linearGradient id="paint6_linear_1310_1905" x1="312.504" y1="341.65" x2="625" y2="341.65" gradientUnits="userSpaceOnUse">
<stop stop-color="#F1F1F1"/>
<stop offset="0.91" stop-color="#B1B1B1"/>
<stop offset="0.93" stop-color="#8D8D8D"/>
<stop offset="0.94" stop-color="#787878"/>
<stop offset="0.95" stop-color="#707070"/>
<stop offset="0.96" stop-color="#858585"/>
<stop offset="0.98" stop-color="#BDBDBD"/>
<stop offset="0.99" stop-color="#D5D5D5"/>
<stop offset="1" stop-color="#666666"/>
</linearGradient>
<linearGradient id="paint7_linear_1310_1905" x1="268.018" y1="340.348" x2="356.982" y2="340.348" gradientUnits="userSpaceOnUse">
<stop stop-color="#9F9F9F"/>
<stop offset="0.04" stop-color="#ACACAC"/>
<stop offset="0.51" stop-color="#E5E5E5"/>
<stop offset="0.96" stop-color="#ACACAC"/>
<stop offset="1" stop-color="#9F9F9F"/>
</linearGradient>
<linearGradient id="paint8_linear_1310_1905" x1="267.671" y1="340.618" x2="357.329" y2="340.618" gradientUnits="userSpaceOnUse">
<stop stop-color="#F7F7F7"/>
<stop offset="0.52" stop-color="#F8F8F8"/>
<stop offset="1" stop-color="#F7F7F7"/>
</linearGradient>
<linearGradient id="paint9_linear_1310_1905" x1="312.504" y1="355" x2="312.504" y2="346.657" gradientUnits="userSpaceOnUse">
<stop stop-color="#575757"/>
<stop offset="0.74" stop-color="#B9B9B9"/>
<stop offset="0.85" stop-color="#B5B5B5"/>
<stop offset="0.94" stop-color="#ABABAB"/>
<stop offset="1" stop-color="#9F9F9F"/>
</linearGradient>
<clipPath id="clip0_1310_1905">
<rect width="625" height="355" fill="white"/>
</clipPath>
</defs>
</svg>
