<svg width="22" height="18" viewBox="0 0 22 18" fill="none" xmlns="http://www.w3.org/2000/svg">
<path d="M21.5882 2.2141C20.8261 2.56047 20.0046 2.78808 19.1534 2.89694C20.0244 2.37244 20.6974 1.54116 21.0141 0.541645C20.1926 1.03645 19.2821 1.38282 18.322 1.58075C17.5401 0.729673 16.4414 0.234863 15.1943 0.234863C12.8684 0.234863 10.968 2.13493 10.968 4.48033C10.968 4.8168 11.0076 5.14338 11.0769 5.45016C7.55334 5.27203 4.41578 3.57978 2.32738 1.01666C1.96117 1.64012 1.75332 2.37244 1.75332 3.14434C1.75332 4.61888 2.49564 5.92517 3.64377 6.66739C2.94104 6.66739 2.28779 6.46946 1.71373 6.17258V6.20227C1.71373 8.26068 3.17858 9.98261 5.11852 10.3686C4.49569 10.539 3.84182 10.5627 3.20827 10.4378C3.4771 11.2815 4.00358 12.0197 4.71372 12.5486C5.42386 13.0776 6.28193 13.3708 7.16733 13.3869C5.66648 14.5749 3.80609 15.217 1.89188 15.2078C1.55536 15.2078 1.21884 15.188 0.882324 15.1484C2.76288 16.3558 4.99975 17.0584 7.39498 17.0584C15.1943 17.0584 19.48 10.5863 19.48 4.97514C19.48 4.78711 19.48 4.60898 19.4701 4.42095C20.3015 3.82718 21.0141 3.07507 21.5882 2.2141Z" fill="white"/>
</svg>
